<svg xmlns="http://www.w3.org/2000/svg" xmlns:xlink="http://www.w3.org/1999/xlink" viewBox="0 0 1000 1000" width="1000" height="1000" preserveAspectRatio="xMidYMid meet" style="width: 100%; height: 100%; transform: translate3d(0px, 0px, 0px); content-visibility: visible;"><defs><clipPath id="__lottie_element_417"><rect width="1000" height="1000" x="0" y="0"/></clipPath></defs><g clip-path="url(#__lottie_element_417)"><g transform="matrix(1,0,0,1,500,500)" opacity="1" style="display: block;"><g opacity="1" transform="matrix(1,0,0,1,0,0)"><path fill="rgb(209,214,255)" fill-opacity="1" d=" M399.5880126953125,-4.645999908447266 C399.5880126953125,215.9320068359375 220.7740020751953,394.7460021972656 0.19599999487400055,394.7460021972656 C-220.38299560546875,394.7460021972656 -399.1969909667969,215.9320068359375 -399.1969909667969,-4.645999908447266 C-399.1969909667969,-225.22500610351562 -220.38299560546875,-404.03900146484375 0.19599999487400055,-404.03900146484375 C220.7740020751953,-404.03900146484375 399.5880126953125,-225.22500610351562 399.5880126953125,-4.645999908447266z"/></g></g><g transform="matrix(1,0,0,1,500,500)" opacity="1" style="display: block;"><g opacity="1" transform="matrix(1,0,0,1,0,0)"><path fill="rgb(243,244,251)" fill-opacity="1" d=" M377.1000061035156,15.095000267028809 C370.5119934082031,8.506999969482422 360.92401123046875,6.7789998054504395 352.739990234375,9.869000434875488 C352.656005859375,4.104000091552734 350.4280090332031,-1.6339999437332153 346.0299987792969,-6.0320000648498535 C337.0610046386719,-15.00100040435791 322.52099609375,-15.00100040435791 313.5530090332031,-6.0320000648498535 C307.6940002441406,-0.17299999296665192 305.6889953613281,8.059000015258789 307.4849853515625,15.567000389099121 C306.75,14.534000396728516 305.9429931640625,13.53600025177002 305.0169982910156,12.609999656677246 C296.0480041503906,3.6419999599456787 281.50799560546875,3.6419999599456787 272.5400085449219,12.609999656677246 C268.53900146484375,16.611000061035156 266.33599853515625,21.72100067138672 265.9049987792969,26.950000762939453 C263.32598876953125,23.2189998626709 259.02301025390625,20.770000457763672 254.1439971923828,20.770000457763672 C246.25,20.770000457763672 239.8509979248047,27.16900062561035 239.8509979248047,35.0629997253418 C239.8509979248047,35.69599914550781 239.8979949951172,36.31700134277344 239.9770050048828,36.926998138427734 C239.9770050048828,36.926998138427734 383.11199951171875,36.926998138427734 383.11199951171875,36.926998138427734 C385.0069885253906,29.35700035095215 383.0190124511719,21.013999938964844 377.1000061035156,15.095000267028809z"/></g></g><g transform="matrix(1,0,0,1,500,500)" opacity="1" style="display: block;"><g opacity="1" transform="matrix(1,0,0,1,0,0)"><path fill="rgb(126,132,255)" fill-opacity="1" d=" M280.38299560546875,393.2359924316406 C280.38299560546875,393.2359924316406 -279.9939880371094,393.2359924316406 -279.9939880371094,393.2359924316406 C-279.9939880371094,393.2359924316406 -279.9939880371094,21.361000061035156 -279.9939880371094,21.361000061035156 C-279.9939880371094,21.361000061035156 280.38299560546875,21.361000061035156 280.38299560546875,21.361000061035156 C280.38299560546875,21.361000061035156 280.38299560546875,393.2359924316406 280.38299560546875,393.2359924316406z"/></g><g opacity="1" transform="matrix(1,0,0,1,0,0)"><path fill="rgb(33,44,104)" fill-opacity="1" d=" M-279.9939880371094,367.1510009765625 C-279.9939880371094,367.1510009765625 280.38299560546875,367.1510009765625 280.38299560546875,367.1510009765625 C280.38299560546875,367.1510009765625 280.38299560546875,393.2359924316406 280.38299560546875,393.2359924316406 C280.38299560546875,393.2359924316406 -279.9939880371094,393.2359924316406 -279.9939880371094,393.2359924316406 C-279.9939880371094,393.2359924316406 -279.9939880371094,367.1510009765625 -279.9939880371094,367.1510009765625z"/></g></g><g style="display: block;" transform="matrix(1,0,0,1.0111839771270752,500,495.58233642578125)" opacity="1"><g opacity="1" transform="matrix(1,0,0,1,0,0)"><path fill="rgb(33,44,104)" fill-opacity="1" d=" M0.19699999690055847,60.763999938964844 C-34.152000427246094,60.763999938964844 -61.999000549316406,88.22000122070312 -61.999000549316406,122.08399963378906 C-61.999000549316406,122.08399963378906 -61.999000549316406,393.2359924316406 -61.999000549316406,393.2359924316406 C-61.999000549316406,393.2359924316406 62.387001037597656,393.2359924316406 62.387001037597656,393.2359924316406 C62.387001037597656,393.2359924316406 62.387001037597656,122.08399963378906 62.387001037597656,122.08399963378906 C62.387001037597656,88.22000122070312 34.540000915527344,60.763999938964844 0.19699999690055847,60.763999938964844z"/></g></g><g transform="matrix(0.9968315362930298,0.08043140918016434,-0.07954181730747223,1.0079801082611084,515.1066284179688,496.3519287109375)" opacity="1" style="display: block;"><g opacity="1" transform="matrix(1,0,0,1,0,0)"><path fill="rgb(245,87,37)" fill-opacity="1" d=" M49.9900016784668,267.4289855957031 C49.9900016784668,267.4289855957031 -49.50699996948242,267.4289855957031 -49.50699996948242,267.4289855957031 C-49.50699996948242,267.4289855957031 -49.50699996948242,227.75599670410156 -49.50699996948242,227.75599670410156 C-49.50699996948242,227.75599670410156 49.9900016784668,227.75599670410156 49.9900016784668,227.75599670410156 C49.9900016784668,227.75599670410156 49.9900016784668,267.4289855957031 49.9900016784668,267.4289855957031z"/><path stroke-linecap="butt" stroke-linejoin="miter" fill-opacity="0" stroke-miterlimit="10" stroke="rgb(255,255,255)" stroke-opacity="1" stroke-width="0.5" d=" M49.9900016784668,267.4289855957031 C49.9900016784668,267.4289855957031 -49.50699996948242,267.4289855957031 -49.50699996948242,267.4289855957031 C-49.50699996948242,267.4289855957031 -49.50699996948242,227.75599670410156 -49.50699996948242,227.75599670410156 C-49.50699996948242,227.75599670410156 49.9900016784668,227.75599670410156 49.9900016784668,227.75599670410156 C49.9900016784668,227.75599670410156 49.9900016784668,267.4289855957031 49.9900016784668,267.4289855957031z"/></g><g opacity="1" transform="matrix(1,0,0,1,0,0)"><path stroke-linecap="butt" stroke-linejoin="miter" fill-opacity="0" stroke-miterlimit="10" stroke="rgb(255,255,255)" stroke-opacity="1" stroke-width="0.5" d=" M-33.94499969482422,227.75599670410156 C-33.94499969482422,227.75599670410156 0.14900000393390656,186.6009979248047 0.14900000393390656,186.6009979248047 C0.14900000393390656,186.6009979248047 34.42499923706055,227.75599670410156 34.42499923706055,227.75599670410156"/></g><g opacity="1" transform="matrix(1,0,0,1,0,0)"><path fill="rgb(245,87,37)" fill-opacity="1" d=" M4.545000076293945,192.6510009765625 C4.545000076293945,195.08099365234375 2.578000068664551,197.04800415039062 0.14900000393390656,197.04800415039062 C-2.2809998989105225,197.04800415039062 -4.248000144958496,195.08099365234375 -4.248000144958496,192.6510009765625 C-4.248000144958496,190.2209930419922 -2.2809998989105225,188.25399780273438 0.14900000393390656,188.25399780273438 C2.578000068664551,188.25399780273438 4.545000076293945,190.2209930419922 4.545000076293945,192.6510009765625z"/></g></g><g transform="matrix(0.9968315362930298,0.08043140918016434,-0.07954181730747223,1.0079801082611084,494.8041687011719,756.6820678710938)" opacity="1" fill="rgb(255,255,255)" font-size="29.4064998626709" font-family="Javanese Text" font-style="normal" font-weight="400" aria-label="OPEN" style="display: block;"><g stroke-linecap="butt" stroke-linejoin="round" stroke-miterlimit="4" transform="matrix(1,0,0,1,-41.24555587768555,0)" opacity="1" style="display: inherit;"><g><g transform="matrix(1,0,0,1,0,0)" opacity="1" style="display: block;"><path d=" M5.27,-13.87 C5.41,-14.88 5.62,-15.76 5.88,-16.48 C6.14,-17.21 6.46,-17.82 6.83,-18.3 C7.21,-18.78 7.62,-19.16 8.08,-19.44 C8.54,-19.72 9.04,-19.92 9.58,-20.03 C10.11,-20.15 10.67,-20.2 11.26,-20.2 C11.84,-20.2 12.4,-20.15 12.92,-20.04 C13.45,-19.93 13.93,-19.73 14.38,-19.46 C14.83,-19.18 15.23,-18.81 15.59,-18.34 C15.96,-17.87 16.27,-17.27 16.52,-16.56 C16.77,-15.84 16.97,-14.98 17.11,-13.99 C17.25,-13 17.32,-11.85 17.32,-10.52 C17.32,-9.18 17.24,-8 17.1,-6.99 C16.96,-5.98 16.75,-5.1 16.49,-4.37 C16.23,-3.64 15.91,-3.03 15.54,-2.56 C15.16,-2.08 14.75,-1.7 14.29,-1.41 C13.83,-1.13 13.33,-0.94 12.8,-0.83 C12.27,-0.72 11.71,-0.66 11.13,-0.66 C10.54,-0.66 9.99,-0.72 9.46,-0.83 C8.94,-0.94 8.45,-1.13 8,-1.41 C7.55,-1.68 7.14,-2.06 6.78,-2.53 C6.41,-3 6.1,-3.59 5.85,-4.3 C5.6,-5.01 5.4,-5.87 5.26,-6.86 C5.12,-7.85 5.05,-9 5.05,-10.32 C5.05,-11.67 5.13,-12.86 5.27,-13.87z M2.59,-5.78 C3.03,-4.45 3.64,-3.33 4.44,-2.4 C5.23,-1.47 6.19,-0.76 7.31,-0.26 C8.43,0.24 9.68,0.49 11.06,0.49 C12.52,0.49 13.83,0.21 15,-0.34 C16.16,-0.9 17.14,-1.67 17.95,-2.66 C18.75,-3.64 19.37,-4.82 19.79,-6.18 C20.22,-7.55 20.43,-9.03 20.43,-10.64 C20.43,-12.28 20.21,-13.76 19.78,-15.08 C19.34,-16.4 18.73,-17.52 17.93,-18.45 C17.14,-19.38 16.18,-20.09 15.07,-20.6 C13.95,-21.1 12.72,-21.35 11.36,-21.35 C9.98,-21.35 8.71,-21.09 7.56,-20.58 C6.41,-20.06 5.41,-19.32 4.58,-18.36 C3.75,-17.4 3.1,-16.23 2.63,-14.86 C2.17,-13.49 1.94,-11.95 1.94,-10.24 C1.94,-8.59 2.16,-7.1 2.59,-5.78z"/><g opacity="1" transform="matrix(0.294064998626709,0,0,0.294064998626709,0,0)"/></g></g></g><g stroke-linecap="butt" stroke-linejoin="round" stroke-miterlimit="4" transform="matrix(1,0,0,1,-18.87603187561035,0)" opacity="1" style="display: inherit;"><g><g transform="matrix(1,0,0,1,0,0)" opacity="1" style="display: block;"><path d=" M6.6,-19.71 C6.6,-19.71 8.6,-19.71 8.6,-19.71 C9.76,-19.71 10.7,-19.62 11.44,-19.44 C12.17,-19.26 12.74,-18.97 13.15,-18.59 C13.56,-18.2 13.84,-17.71 13.99,-17.12 C14.14,-16.52 14.22,-15.81 14.22,-14.99 C14.22,-13.99 14.12,-13.16 13.92,-12.5 C13.72,-11.83 13.4,-11.3 12.95,-10.9 C12.5,-10.5 11.9,-10.21 11.15,-10.04 C10.4,-9.88 9.47,-9.79 8.37,-9.79 C8.37,-9.79 6.6,-9.79 6.6,-9.79 C6.6,-9.79 6.6,-19.71 6.6,-19.71z M0.93,-20.86 C0.93,-20.86 0.93,-19.71 0.93,-19.71 C0.93,-19.71 3.8,-19.71 3.8,-19.71 C3.8,-19.71 3.8,-1.15 3.8,-1.15 C3.8,-1.15 0.93,-1.15 0.93,-1.15 C0.93,-1.15 0.93,0 0.93,0 C0.93,0 9.62,0 9.62,0 C9.62,0 9.62,-1.15 9.62,-1.15 C9.62,-1.15 6.6,-1.15 6.6,-1.15 C6.6,-1.15 6.6,-8.64 6.6,-8.64 C6.6,-8.64 8.59,-8.64 8.59,-8.64 C10.28,-8.64 11.69,-8.83 12.8,-9.19 C13.92,-9.55 14.81,-10.04 15.47,-10.64 C16.14,-11.24 16.6,-11.93 16.87,-12.69 C17.14,-13.46 17.27,-14.24 17.27,-15.05 C17.27,-15.9 17.13,-16.68 16.84,-17.4 C16.54,-18.11 16.06,-18.72 15.4,-19.23 C14.73,-19.75 13.86,-20.14 12.78,-20.43 C11.7,-20.72 10.36,-20.86 8.77,-20.86 C8.77,-20.86 0.93,-20.86 0.93,-20.86z"/><g opacity="1" transform="matrix(0.294064998626709,0,0,0.294064998626709,0,0)"/></g></g></g><g stroke-linecap="butt" stroke-linejoin="round" stroke-miterlimit="4" transform="matrix(1,0,0,1,-0.5263757109642029,0)" opacity="1" style="display: inherit;"><g><g transform="matrix(1,0,0,1,0,0)" opacity="1" style="display: block;"><path d=" M6.6,-19.71 C6.6,-19.71 11.16,-19.71 11.16,-19.71 C12.08,-19.71 12.85,-19.65 13.46,-19.54 C14.07,-19.42 14.56,-19.19 14.94,-18.85 C15.32,-18.51 15.61,-18.04 15.82,-17.44 C16.03,-16.84 16.21,-16.06 16.35,-15.11 C16.35,-15.11 17.36,-15.11 17.36,-15.11 C17.36,-15.11 17.07,-20.86 17.07,-20.86 C17.07,-20.86 0.93,-20.86 0.93,-20.86 C0.93,-20.86 0.93,-19.71 0.93,-19.71 C0.93,-19.71 3.8,-19.71 3.8,-19.71 C3.8,-19.71 3.8,-1.15 3.8,-1.15 C3.8,-1.15 0.93,-1.15 0.93,-1.15 C0.93,-1.15 0.93,0 0.93,0 C0.93,0 17.43,0 17.43,0 C17.43,0 17.72,-7.12 17.72,-7.12 C17.72,-7.12 16.71,-7.12 16.71,-7.12 C16.58,-6.26 16.44,-5.51 16.28,-4.88 C16.13,-4.25 15.94,-3.71 15.72,-3.27 C15.5,-2.83 15.24,-2.47 14.94,-2.2 C14.64,-1.92 14.28,-1.7 13.86,-1.55 C13.43,-1.4 12.94,-1.29 12.38,-1.23 C11.81,-1.18 11.16,-1.15 10.41,-1.15 C10.41,-1.15 6.6,-1.15 6.6,-1.15 C6.6,-1.15 6.6,-10.22 6.6,-10.22 C6.6,-10.22 8.49,-10.22 8.49,-10.22 C9.18,-10.22 9.74,-10.19 10.17,-10.12 C10.61,-10.06 10.96,-9.89 11.21,-9.63 C11.47,-9.38 11.66,-9 11.77,-8.49 C11.89,-7.99 11.97,-7.3 12.02,-6.43 C12.02,-6.43 13.04,-6.43 13.04,-6.43 C13.04,-6.43 13.04,-14.93 13.04,-14.93 C13.04,-14.93 12.02,-14.93 12.02,-14.93 C11.96,-14.07 11.86,-13.4 11.73,-12.93 C11.6,-12.46 11.4,-12.11 11.14,-11.88 C10.87,-11.66 10.52,-11.52 10.09,-11.47 C9.66,-11.42 9.13,-11.4 8.49,-11.4 C8.49,-11.4 6.6,-11.4 6.6,-11.4 C6.6,-11.4 6.6,-19.71 6.6,-19.71z"/><g opacity="1" transform="matrix(0.294064998626709,0,0,0.294064998626709,0,0)"/></g></g></g><g stroke-linecap="butt" stroke-linejoin="round" stroke-miterlimit="4" transform="matrix(1,0,0,1,19.13187026977539,0)" opacity="1" style="display: inherit;"><g><g transform="matrix(1,0,0,1,0,0)" opacity="1" style="display: block;"><path d=" M18.59,-19.71 C18.59,-19.71 21.47,-19.71 21.47,-19.71 C21.47,-19.71 21.47,-20.86 21.47,-20.86 C21.47,-20.86 14.43,-20.86 14.43,-20.86 C14.43,-20.86 14.43,-19.71 14.43,-19.71 C14.43,-19.71 17.3,-19.71 17.3,-19.71 C17.3,-19.71 17.3,-5.34 17.3,-5.34 C17.3,-5.34 17.23,-5.33 17.23,-5.33 C17.23,-5.33 7.21,-20.86 7.21,-20.86 C7.21,-20.86 0.79,-20.86 0.79,-20.86 C0.79,-20.86 0.79,-19.71 0.79,-19.71 C0.79,-19.71 3.66,-19.71 3.66,-19.71 C3.66,-19.71 3.66,-1.15 3.66,-1.15 C3.66,-1.15 0.79,-1.15 0.79,-1.15 C0.79,-1.15 0.79,0 0.79,0 C0.79,0 7.54,0 7.54,0 C7.54,0 7.54,-1.15 7.54,-1.15 C7.54,-1.15 4.95,-1.15 4.95,-1.15 C4.95,-1.15 4.95,-19.03 4.95,-19.03 C4.95,-19.03 5.03,-19.04 5.03,-19.04 C5.03,-19.04 17.45,0.22 17.45,0.22 C17.45,0.22 18.59,0.22 18.59,0.22 C18.59,0.22 18.59,-19.71 18.59,-19.71z"/><g opacity="1" transform="matrix(0.294064998626709,0,0,0.294064998626709,0,0)"/></g></g></g></g><g transform="matrix(1,0,0,1,500,500)" opacity="1" style="display: block;"><g opacity="1" transform="matrix(1,0,0,1,0,0)"><path fill="rgb(33,44,104)" fill-opacity="1" d=" M239.23699951171875,161.14599609375 C239.23699951171875,194.69400024414062 212.0449981689453,221.88800048828125 178.4969940185547,221.88800048828125 C144.94900512695312,221.88800048828125 117.75700378417969,194.69400024414062 117.75700378417969,161.14599609375 C117.75700378417969,127.5979995727539 144.94900512695312,100.40299987792969 178.4969940185547,100.40299987792969 C212.0449981689453,100.40299987792969 239.23699951171875,127.5979995727539 239.23699951171875,161.14599609375z"/><path stroke-linecap="butt" stroke-linejoin="miter" fill-opacity="0" stroke-miterlimit="10" stroke="rgb(227,229,247)" stroke-opacity="1" stroke-width="1.185" d=" M239.23699951171875,161.14599609375 C239.23699951171875,194.69400024414062 212.0449981689453,221.88800048828125 178.4969940185547,221.88800048828125 C144.94900512695312,221.88800048828125 117.75700378417969,194.69400024414062 117.75700378417969,161.14599609375 C117.75700378417969,127.5979995727539 144.94900512695312,100.40299987792969 178.4969940185547,100.40299987792969 C212.0449981689453,100.40299987792969 239.23699951171875,127.5979995727539 239.23699951171875,161.14599609375z"/></g><g opacity="1" transform="matrix(1,0,0,1,0,0)"><path fill="rgb(255,255,255)" fill-opacity="1" d=" M178.4969940185547,100.40299987792969 C178.4969940185547,100.40299987792969 178.4969940185547,221.88800048828125 178.4969940185547,221.88800048828125"/><path stroke-linecap="butt" stroke-linejoin="miter" fill-opacity="0" stroke-miterlimit="10" stroke="rgb(227,229,247)" stroke-opacity="1" stroke-width="1.185" d=" M178.4969940185547,100.40299987792969 C178.4969940185547,100.40299987792969 178.4969940185547,221.88800048828125 178.4969940185547,221.88800048828125"/></g><g opacity="1" transform="matrix(1,0,0,1,0,0)"><path fill="rgb(255,255,255)" fill-opacity="1" d=" M239.24000549316406,161.14599609375 C239.24000549316406,161.14599609375 117.75399780273438,161.14599609375 117.75399780273438,161.14599609375"/><path stroke-linecap="butt" stroke-linejoin="miter" fill-opacity="0" stroke-miterlimit="10" stroke="rgb(227,229,247)" stroke-opacity="1" stroke-width="1.185" d=" M239.24000549316406,161.14599609375 C239.24000549316406,161.14599609375 117.75399780273438,161.14599609375 117.75399780273438,161.14599609375"/></g></g><g transform="matrix(-0.009826045483350754,0.9999517202377319,-0.9999517202377319,-0.009826045483350754,481.27911376953125,840.8278198242188)" opacity="1" style="display: block;"><g opacity="1" transform="matrix(1,0,0,1,0,0)"><path fill="rgb(33,44,104)" fill-opacity="1" d=" M-117.36900329589844,161.14599609375 C-117.36900329589844,194.69400024414062 -144.55999755859375,221.88800048828125 -178.10800170898438,221.88800048828125 C-211.656005859375,221.88800048828125 -238.8489990234375,194.69400024414062 -238.8489990234375,161.14599609375 C-238.8489990234375,127.5979995727539 -211.656005859375,100.40299987792969 -178.10800170898438,100.40299987792969 C-144.55999755859375,100.40299987792969 -117.36900329589844,127.5979995727539 -117.36900329589844,161.14599609375z"/><path stroke-linecap="butt" stroke-linejoin="miter" fill-opacity="0" stroke-miterlimit="10" stroke="rgb(227,229,247)" stroke-opacity="1" stroke-width="1.185" d=" M-117.36900329589844,161.14599609375 C-117.36900329589844,194.69400024414062 -144.55999755859375,221.88800048828125 -178.10800170898438,221.88800048828125 C-211.656005859375,221.88800048828125 -238.8489990234375,194.69400024414062 -238.8489990234375,161.14599609375 C-238.8489990234375,127.5979995727539 -211.656005859375,100.40299987792969 -178.10800170898438,100.40299987792969 C-144.55999755859375,100.40299987792969 -117.36900329589844,127.5979995727539 -117.36900329589844,161.14599609375z"/></g><g opacity="1" transform="matrix(1,0,0,1,0,0)"><path fill="rgb(255,255,255)" fill-opacity="1" d=" M-178.10800170898438,100.40299987792969 C-178.10800170898438,100.40299987792969 -178.10800170898438,221.88800048828125 -178.10800170898438,221.88800048828125"/><path stroke-linecap="butt" stroke-linejoin="miter" fill-opacity="0" stroke-miterlimit="10" stroke="rgb(227,229,247)" stroke-opacity="1" stroke-width="1.185" d=" M-178.10800170898438,100.40299987792969 C-178.10800170898438,100.40299987792969 -178.10800170898438,221.88800048828125 -178.10800170898438,221.88800048828125"/></g><g opacity="1" transform="matrix(1,0,0,1,0,0)"><path fill="rgb(255,255,255)" fill-opacity="1" d=" M-117.36599731445312,161.14599609375 C-117.36599731445312,161.14599609375 -238.8509979248047,161.14599609375 -238.8509979248047,161.14599609375"/><path stroke-linecap="butt" stroke-linejoin="miter" fill-opacity="0" stroke-miterlimit="10" stroke="rgb(227,229,247)" stroke-opacity="1" stroke-width="1.185" d=" M-117.36599731445312,161.14599609375 C-117.36599731445312,161.14599609375 -238.8509979248047,161.14599609375 -238.8509979248047,161.14599609375"/></g></g><g transform="matrix(1,0,0,1,500,500)" opacity="1" style="display: block;"><g opacity="1" transform="matrix(1,0,0,1,0,0)"><path fill="rgb(243,244,251)" fill-opacity="1" d=" M361.9320068359375,-278.66400146484375 C344.9209899902344,-295.67498779296875 320.1619873046875,-300.1400146484375 299.0299987792969,-292.1600036621094 C298.81298828125,-307.04400634765625 293.05999755859375,-321.8630065917969 281.7030029296875,-333.2200012207031 C258.5459899902344,-356.37701416015625 221,-356.37701416015625 197.8419952392578,-333.2200012207031 C182.71299743652344,-318.09100341796875 177.53599548339844,-296.8340148925781 182.1739959716797,-277.4469909667969 C180.2760009765625,-280.114013671875 178.1929931640625,-282.69000244140625 175.80099487304688,-285.0820007324219 C152.64300537109375,-308.239990234375 115.09700012207031,-308.239990234375 91.94000244140625,-285.0820007324219 C81.60900115966797,-274.7510070800781 75.91899871826172,-261.55499267578125 74.80599975585938,-248.052001953125 C68.14700317382812,-257.68798828125 57.0359992980957,-264.0119934082031 44.4370002746582,-264.0119934082031 C24.05500030517578,-264.0119934082031 7.5320000648498535,-247.48800659179688 7.5320000648498535,-227.1060028076172 C7.5320000648498535,-225.47300720214844 7.6529998779296875,-223.8699951171875 7.859000205993652,-222.29299926757812 C7.859000205993652,-222.29299926757812 377.4540100097656,-222.29299926757812 377.4540100097656,-222.29299926757812 C382.34600830078125,-241.83900451660156 377.2170104980469,-263.3789978027344 361.9320068359375,-278.66400146484375z"/></g></g><g transform="matrix(0.9988560676574707,0.04781780764460564,-0.04781780764460564,0.9988560676574707,514.0008544921875,513.4349365234375)" opacity="1" style="display: block;"><g opacity="1" transform="matrix(1,0,0,1,0,0)"><path fill="rgb(126,132,255)" fill-opacity="1" d=" M-287.37701416015625,234.6320037841797 C-286.7279968261719,227.19000244140625 -284.3429870605469,207.2989959716797 -293.2139892578125,202.97900390625 C-303.5899963378906,197.92799377441406 -311.9960021972656,219.36399841308594 -313.7139892578125,225.75900268554688 C-318.3290100097656,242.92999267578125 -314.1199951171875,262.7799987792969 -307.7749938964844,279.52301025390625 C-321.95098876953125,268.4339904785156 -334.7950134277344,255.25799560546875 -346.6210021972656,242.2899932861328 C-346.6189880371094,242.22300720214844 -346.6210021972656,242.15199279785156 -346.6239929199219,242.07899475097656 C-346.625,242.07200622558594 -346.625,242.06700134277344 -346.6260070800781,242.0590057373047 C-346.6340026855469,241.9199981689453 -346.5979919433594,241.80299377441406 -346.6310119628906,241.6510009765625 C-348.89300537109375,231.42599487304688 -342.51300048828125,220.24400329589844 -338.2019958496094,211.3350067138672 C-332.5350036621094,199.63299560546875 -326.09600830078125,188.30499267578125 -321.6440124511719,176.05099487304688 C-317.8760070800781,165.6790008544922 -316.1189880371094,142.38699340820312 -333.4219970703125,143.56500244140625 C-347.614990234375,144.53199768066406 -350.75799560546875,175.15199279785156 -352.22698974609375,184.7519989013672 C-354.47698974609375,199.45899963378906 -357.0469970703125,218.45599365234375 -353.82501220703125,234.27499389648438 C-360.9830017089844,226.19400024414062 -367.9989929199219,217.76300048828125 -374.6199951171875,208.98300170898438 C-374.68798828125,208.71600341796875 -374.7640075683594,208.447998046875 -374.9309997558594,208.18499755859375 C-382.39300537109375,196.4600067138672 -382.8710021972656,178.1300048828125 -385.0639953613281,164.78199768066406 C-387.7409973144531,148.47799682617188 -389.87701416015625,131.5760040283203 -395.6820068359375,116.01699829101562 C-397.177001953125,112.01100158691406 -404.8479919433594,98.8740005493164 -410.739013671875,106.00599670410156 C-418.0950012207031,114.90799713134766 -418.4779968261719,126.4020004272461 -416.6260070800781,137.33599853515625 C-411.65301513671875,166.6929931640625 -392.7820129394531,194.5260009765625 -373.6099853515625,218.3800048828125 C-393.53900146484375,205.7790069580078 -439.4800109863281,174.843994140625 -447.2560119628906,197.67100524902344 C-457.6159973144531,228.0850067138672 -379.8349914550781,230.4810028076172 -364.2950134277344,231.2010040283203 C-363.875,231.2220001220703 -363.5069885253906,231.14300537109375 -363.1820068359375,231.00999450683594 C-362.552001953125,231.75599670410156 -361.9150085449219,232.51800537109375 -361.28900146484375,233.2550048828125 C-352.760009765625,243.31500244140625 -343.53399658203125,253.66700744628906 -333.61199951171875,263.4440002441406 C-353.6730041503906,260.3659973144531 -374.5660095214844,259.66900634765625 -394.1260070800781,265.343994140625 C-399.85400390625,267.00299072265625 -431.00299072265625,282.0740051269531 -418.2539978027344,291.197998046875 C-409.0880126953125,297.7560119628906 -392.47900390625,290.01300048828125 -383.3169860839844,286.95001220703125 C-365.0660095214844,280.8450012207031 -346.2330017089844,271.41900634765625 -326.8169860839844,269.8429870605469 C-319.385009765625,276.7239990234375 -311.6109924316406,283.19500732421875 -303.43701171875,288.9150085449219 C-315.5060119628906,295.2130126953125 -361.9859924316406,317.8760070800781 -349.4309997558594,331.489990234375 C-334.8349914550781,347.3110046386719 -305.2430114746094,301.1990051269531 -298.8059997558594,291.97601318359375 C-292.3089904785156,296.218994140625 -285.6319885253906,300.0740051269531 -278.6759948730469,303.1709899902344 C-275.7460021972656,304.47900390625 -273.9739990234375,299.8429870605469 -276.8900146484375,298.5429992675781 C-285.14801025390625,294.8689880371094 -292.9830017089844,290.14801025390625 -300.5060119628906,284.8340148925781 C-292.4289855957031,269.4460144042969 -288.8739929199219,251.82000732421875 -287.37701416015625,234.6320037841797z"/></g></g><g transform="matrix(1,0,0,1,219.53399658203125,397.1000061035156)" opacity="1" style="display: block;"><g opacity="1" transform="matrix(1,0,0,1,0,0)"><path fill="rgb(245,87,37)" fill-opacity="1" d=" M-4.888000011444092,-132.28599548339844 C-4.888000011444092,-132.28599548339844 -40.17599868774414,106.81400299072266 -40.17599868774414,106.81400299072266 C-40.17599868774414,120.87999725341797 -28.77199935913086,132.28599548339844 -14.70300006866455,132.28599548339844 C-0.6370000243186951,132.28599548339844 10.769000053405762,120.87999725341797 10.769000053405762,106.81400299072266 C10.769000053405762,106.81400299072266 40.17599868774414,-132.28599548339844 40.17599868774414,-132.28599548339844 C40.17599868774414,-132.28599548339844 -4.888000011444092,-132.28599548339844 -4.888000011444092,-132.28599548339844z"/></g></g><g transform="matrix(1,0,0,1,267.5369873046875,397.1000061035156)" opacity="1" style="display: block;"><g opacity="1" transform="matrix(1,0,0,1,0,0)"><path fill="rgb(243,244,251)" fill-opacity="1" d=" M-7.827000141143799,-132.28599548339844 C-7.827000141143799,-132.28599548339844 -37.233001708984375,106.81400299072266 -37.233001708984375,106.81400299072266 C-37.233001708984375,120.87999725341797 -25.829999923706055,132.28599548339844 -11.763999938964844,132.28599548339844 C2.305000066757202,132.28599548339844 13.708000183105469,120.87999725341797 13.708000183105469,106.81400299072266 C13.708000183105469,106.81400299072266 37.233001708984375,-132.28599548339844 37.233001708984375,-132.28599548339844 C37.233001708984375,-132.28599548339844 -7.827000141143799,-132.28599548339844 -7.827000141143799,-132.28599548339844z"/></g></g><g transform="matrix(1,0,0,1,315.53900146484375,397.1000061035156)" opacity="1" style="display: block;"><g opacity="1" transform="matrix(1,0,0,1,0,0)"><path fill="rgb(245,87,37)" fill-opacity="1" d=" M-10.769000053405762,-132.28599548339844 C-10.769000053405762,-132.28599548339844 -34.29399871826172,106.81400299072266 -34.29399871826172,106.81400299072266 C-34.29399871826172,120.87999725341797 -22.88800048828125,132.28599548339844 -8.821999549865723,132.28599548339844 C5.247000217437744,132.28599548339844 16.649999618530273,120.87999725341797 16.649999618530273,106.81400299072266 C16.649999618530273,106.81400299072266 34.29399871826172,-132.28599548339844 34.29399871826172,-132.28599548339844 C34.29399871826172,-132.28599548339844 -10.769000053405762,-132.28599548339844 -10.769000053405762,-132.28599548339844z"/></g></g><g transform="matrix(1,0,0,1,363.5429992675781,397.1000061035156)" opacity="1" style="display: block;"><g opacity="1" transform="matrix(1,0,0,1,0,0)"><path fill="rgb(243,244,251)" fill-opacity="1" d=" M-13.710000038146973,-132.28599548339844 C-13.710000038146973,-132.28599548339844 -31.354000091552734,106.81400299072266 -31.354000091552734,106.81400299072266 C-31.354000091552734,120.87999725341797 -19.951000213623047,132.28599548339844 -5.881999969482422,132.28599548339844 C8.184000015258789,132.28599548339844 19.590999603271484,120.87999725341797 19.590999603271484,106.81400299072266 C19.590999603271484,106.81400299072266 31.354000091552734,-132.28599548339844 31.354000091552734,-132.28599548339844 C31.354000091552734,-132.28599548339844 -13.710000038146973,-132.28599548339844 -13.710000038146973,-132.28599548339844z"/></g></g><g transform="matrix(1,0,0,1,411.5450134277344,397.1000061035156)" opacity="1" style="display: block;"><g opacity="1" transform="matrix(1,0,0,1,0,0)"><path fill="rgb(245,87,37)" fill-opacity="1" d=" M-16.64900016784668,-132.28599548339844 C-16.64900016784668,-132.28599548339844 -28.410999298095703,106.81400299072266 -28.410999298095703,106.81400299072266 C-28.410999298095703,120.87999725341797 -17.006999969482422,132.28599548339844 -2.938999891281128,132.28599548339844 C11.126999855041504,132.28599548339844 22.530000686645508,120.87999725341797 22.530000686645508,106.81400299072266 C22.530000686645508,106.81400299072266 28.410999298095703,-132.28599548339844 28.410999298095703,-132.28599548339844 C28.410999298095703,-132.28599548339844 -16.64900016784668,-132.28599548339844 -16.64900016784668,-132.28599548339844z"/></g></g><g transform="matrix(1,0,0,1,459.5480041503906,397.1000061035156)" opacity="1" style="display: block;"><g opacity="1" transform="matrix(1,0,0,1,0,0)"><path fill="rgb(243,244,251)" fill-opacity="1" d=" M-19.590999603271484,-132.28599548339844 C-19.590999603271484,-132.28599548339844 -25.472000122070312,106.81400299072266 -25.472000122070312,106.81400299072266 C-25.472000122070312,120.87999725341797 -14.065999984741211,132.28599548339844 0,132.28599548339844 C14.069000244140625,132.28599548339844 25.472000122070312,120.87999725341797 25.472000122070312,106.81400299072266 C25.472000122070312,106.81400299072266 25.472000122070312,-132.28599548339844 25.472000122070312,-132.28599548339844 C25.472000122070312,-132.28599548339844 -19.590999603271484,-132.28599548339844 -19.590999603271484,-132.28599548339844z"/></g></g><g transform="matrix(1,0,0,1,510.49200439453125,397.1000061035156)" opacity="1" style="display: block;"><g opacity="1" transform="matrix(1,0,0,1,0,0)"><path fill="rgb(245,87,37)" fill-opacity="1" d=" M-25.472000122070312,-132.28599548339844 C-25.472000122070312,-132.28599548339844 -25.472000122070312,106.81400299072266 -25.472000122070312,106.81400299072266 C-25.472000122070312,120.87999725341797 -14.069000244140625,132.28599548339844 0,132.28599548339844 C14.069000244140625,132.28599548339844 25.472000122070312,120.87999725341797 25.472000122070312,106.81400299072266 C25.472000122070312,106.81400299072266 25.472000122070312,-132.28599548339844 25.472000122070312,-132.28599548339844 C25.472000122070312,-132.28599548339844 -25.472000122070312,-132.28599548339844 -25.472000122070312,-132.28599548339844z"/></g></g><g transform="matrix(1,0,0,1,561.43701171875,397.1000061035156)" opacity="1" style="display: block;"><g opacity="1" transform="matrix(1,0,0,1,0,0)"><path fill="rgb(243,244,251)" fill-opacity="1" d=" M-25.472000122070312,-132.28599548339844 C-25.472000122070312,-132.28599548339844 -25.472000122070312,106.81400299072266 -25.472000122070312,106.81400299072266 C-25.472000122070312,120.87999725341797 -14.069000244140625,132.28599548339844 0,132.28599548339844 C14.065999984741211,132.28599548339844 25.472000122070312,120.87999725341797 25.472000122070312,106.81400299072266 C25.472000122070312,106.81400299072266 19.590999603271484,-132.28599548339844 19.590999603271484,-132.28599548339844 C19.590999603271484,-132.28599548339844 -25.472000122070312,-132.28599548339844 -25.472000122070312,-132.28599548339844z"/></g></g><g transform="matrix(1,0,0,1,609.4390258789062,397.1000061035156)" opacity="1" style="display: block;"><g opacity="1" transform="matrix(1,0,0,1,0,0)"><path fill="rgb(245,87,37)" fill-opacity="1" d=" M-28.41200065612793,-132.28599548339844 C-28.41200065612793,-132.28599548339844 -22.530000686645508,106.81400299072266 -22.530000686645508,106.81400299072266 C-22.530000686645508,120.87999725341797 -11.126999855041504,132.28599548339844 2.938999891281128,132.28599548339844 C17.007999420166016,132.28599548339844 28.41200065612793,120.87999725341797 28.41200065612793,106.81400299072266 C28.41200065612793,106.81400299072266 16.64900016784668,-132.28599548339844 16.64900016784668,-132.28599548339844 C16.64900016784668,-132.28599548339844 -28.41200065612793,-132.28599548339844 -28.41200065612793,-132.28599548339844z"/></g></g><g transform="matrix(1,0,0,1,657.4420166015625,397.1000061035156)" opacity="1" style="display: block;"><g opacity="1" transform="matrix(1,0,0,1,0,0)"><path fill="rgb(243,244,251)" fill-opacity="1" d=" M-31.354000091552734,-132.28599548339844 C-31.354000091552734,-132.28599548339844 -19.590999603271484,106.81400299072266 -19.590999603271484,106.81400299072266 C-19.590999603271484,120.87999725341797 -8.1850004196167,132.28599548339844 5.88100004196167,132.28599548339844 C19.94700050354004,132.28599548339844 31.354000091552734,120.87999725341797 31.354000091552734,106.81400299072266 C31.354000091552734,106.81400299072266 13.710000038146973,-132.28599548339844 13.710000038146973,-132.28599548339844 C13.710000038146973,-132.28599548339844 -31.354000091552734,-132.28599548339844 -31.354000091552734,-132.28599548339844z"/></g></g><g transform="matrix(1,0,0,1,705.4450073242188,397.1000061035156)" opacity="1" style="display: block;"><g opacity="1" transform="matrix(1,0,0,1,0,0)"><path fill="rgb(245,87,37)" fill-opacity="1" d=" M-34.29399871826172,-132.28599548339844 C-34.29399871826172,-132.28599548339844 -16.649999618530273,106.81400299072266 -16.649999618530273,106.81400299072266 C-16.649999618530273,120.87999725341797 -5.247000217437744,132.28599548339844 8.819000244140625,132.28599548339844 C22.88800048828125,132.28599548339844 34.29399871826172,120.87999725341797 34.29399871826172,106.81400299072266 C34.29399871826172,106.81400299072266 10.769000053405762,-132.28599548339844 10.769000053405762,-132.28599548339844 C10.769000053405762,-132.28599548339844 -34.29399871826172,-132.28599548339844 -34.29399871826172,-132.28599548339844z"/></g></g><g transform="matrix(1,0,0,0.9967286586761475,753.447998046875,396.6649169921875)" opacity="1" style="display: block;"><g opacity="1" transform="matrix(1,0,0,1,0,0)"><path fill="rgb(243,244,251)" fill-opacity="1" d=" M-37.233001708984375,-132.28599548339844 C-37.233001708984375,-132.28599548339844 -13.708000183105469,106.81400299072266 -13.708000183105469,106.81400299072266 C-13.708000183105469,120.87999725341797 -2.305000066757202,132.28599548339844 11.763999938964844,132.28599548339844 C25.829999923706055,132.28599548339844 37.233001708984375,120.87999725341797 37.233001708984375,106.81400299072266 C37.233001708984375,106.81400299072266 7.827000141143799,-132.28599548339844 7.827000141143799,-132.28599548339844 C7.827000141143799,-132.28599548339844 -37.233001708984375,-132.28599548339844 -37.233001708984375,-132.28599548339844z"/></g></g><g transform="matrix(1,0,0,0.9485470056533813,801.4500122070312,390.25677490234375)" opacity="1" style="display: block;"><g opacity="1" transform="matrix(1,0,0,1,0,0)"><path fill="rgb(245,87,37)" fill-opacity="1" d=" M-40.17499923706055,-132.28599548339844 C-40.17499923706055,-132.28599548339844 -10.769000053405762,106.81400299072266 -10.769000053405762,106.81400299072266 C-10.769000053405762,120.87999725341797 0.6380000114440918,132.28599548339844 14.704000473022461,132.28599548339844 C28.77199935913086,132.28599548339844 40.17499923706055,120.87999725341797 40.17499923706055,106.81400299072266 C40.17499923706055,106.81400299072266 4.888000011444092,-132.28599548339844 4.888000011444092,-132.28599548339844 C4.888000011444092,-132.28599548339844 -40.17499923706055,-132.28599548339844 -40.17499923706055,-132.28599548339844z"/></g></g></g></svg>